<?xml version="1.0" encoding="UTF-8"?>
<svg xmlns="http://www.w3.org/2000/svg" xmlns:xlink="http://www.w3.org/1999/xlink" width="192px" height="75px" viewBox="0 0 192 75" version="1.1">
<g id="surface1">
<path style=" stroke:none;fill-rule:nonzero;fill:rgb(99.607843%,78.431374%,50.980395%);fill-opacity:1;" d="M 34.554688 74.945312 C 32.527344 74.945312 30.589844 74.394531 28.816406 73.398438 L 6.144531 60.449219 C 2.558594 58.453125 0.371094 54.71875 0.371094 50.660156 L 0.371094 24.832031 C 0.371094 20.773438 2.558594 17.003906 6.109375 15.007812 L 28.816406 2.0625 C 32.398438 0.0664062 36.742188 0.0664062 40.324219 2.0625 L 63 15.007812 C 66.582031 17.003906 68.738281 20.742188 68.738281 24.800781 L 68.738281 50.628906 C 68.738281 54.6875 66.550781 58.453125 63 60.417969 L 40.324219 73.367188 C 38.519531 74.394531 36.585938 74.945312 34.554688 74.945312 Z M 34.554688 1.835938 C 33.160156 1.835938 31.765625 2.222656 30.433594 2.898438 L 6.046875 16.84375 C 3.574219 18.292969 1.925781 20.964844 1.925781 23.800781 L 1.925781 51.59375 C 1.925781 54.492188 3.480469 57.101562 6.046875 58.550781 L 30.433594 72.433594 C 32.90625 73.882812 36.109375 73.882812 38.582031 72.433594 L 62.964844 58.550781 C 65.441406 57.101562 67.089844 54.429688 67.089844 51.59375 L 67.089844 23.832031 C 67.089844 20.933594 65.535156 18.324219 62.964844 16.875 L 38.675781 2.929688 C 37.441406 2.222656 35.949219 1.835938 34.554688 1.835938 Z M 34.554688 1.835938 "/>
<path style=" stroke:none;fill-rule:evenodd;fill:rgb(99.607843%,78.431374%,50.980395%);fill-opacity:1;" d="M 39.628906 9.179688 L 58.050781 19.679688 C 60.84375 21.289062 62.648438 24.347656 62.648438 27.632812 L 62.648438 48.46875 C 62.648438 51.753906 60.875 54.816406 57.988281 56.425781 L 39.628906 66.925781 C 38.136719 67.761719 36.585938 68.148438 34.96875 68.148438 C 33.351562 68.148438 31.699219 67.761719 30.304688 66.925781 L 11.976562 56.488281 C 9.09375 54.816406 7.316406 51.820312 7.316406 48.535156 L 7.316406 27.632812 C 7.316406 24.347656 9.09375 21.289062 11.976562 19.679688 L 30.304688 9.179688 C 33.191406 7.570312 36.742188 7.570312 39.628906 9.179688 Z M 40.863281 52.207031 L 47.9375 52.207031 L 47.9375 23.285156 L 40.863281 23.285156 L 40.863281 41.222656 L 29.070312 23.285156 L 21.996094 23.285156 L 21.996094 52.207031 L 29.070312 52.207031 L 29.070312 34.460938 Z M 40.863281 52.207031 "/>
<path style=" stroke:none;fill-rule:nonzero;fill:rgb(100%,100%,100%);fill-opacity:1;" d="M 99.84375 34.136719 L 95.566406 34.136719 L 88.398438 23.382812 L 88.398438 34.136719 L 84.117188 34.136719 L 84.117188 16.617188 L 88.398438 16.617188 L 95.566406 27.472656 L 95.566406 16.617188 L 99.84375 16.617188 Z M 99.84375 34.136719 "/>
<path style=" stroke:none;fill-rule:nonzero;fill:rgb(100%,100%,100%);fill-opacity:1;" d="M 108.121094 20.128906 C 109.199219 20.128906 110.121094 20.355469 110.878906 20.835938 C 111.640625 21.320312 112.210938 21.964844 112.59375 22.800781 L 112.59375 20.289062 L 116.84375 20.289062 L 116.84375 34.140625 L 112.59375 34.140625 L 112.59375 31.625 C 112.210938 32.464844 111.671875 33.109375 110.878906 33.589844 C 110.121094 34.074219 109.199219 34.300781 108.121094 34.300781 C 106.980469 34.300781 105.933594 34.011719 105.015625 33.460938 C 104.125 32.882812 103.398438 32.046875 102.859375 30.984375 C 102.351562 29.917969 102.097656 28.664062 102.097656 27.214844 C 102.097656 25.765625 102.351562 24.507812 102.859375 23.445312 C 103.398438 22.382812 104.09375 21.546875 105.015625 21 C 105.933594 20.417969 106.949219 20.128906 108.121094 20.128906 Z M 109.484375 23.863281 C 108.566406 23.863281 107.835938 24.15625 107.265625 24.765625 C 106.726562 25.347656 106.441406 26.183594 106.441406 27.246094 C 106.441406 28.308594 106.726562 29.148438 107.265625 29.726562 C 107.835938 30.304688 108.566406 30.628906 109.484375 30.628906 C 110.375 30.628906 111.132812 30.339844 111.671875 29.726562 C 112.242188 29.113281 112.5625 28.308594 112.5625 27.277344 C 112.5625 26.25 112.277344 25.410156 111.671875 24.832031 C 111.132812 24.15625 110.40625 23.863281 109.484375 23.863281 Z M 109.484375 23.863281 "/>
<path style=" stroke:none;fill-rule:nonzero;fill:rgb(100%,100%,100%);fill-opacity:1;" d="M 127.6875 30.5 L 127.6875 34.140625 L 125.753906 34.140625 C 124.105469 34.140625 122.835938 33.753906 121.914062 32.945312 C 121.027344 32.140625 120.550781 30.820312 120.550781 28.953125 L 120.550781 23.898438 L 118.679688 23.898438 L 118.679688 20.324219 L 120.550781 20.324219 L 120.550781 16.910156 L 124.832031 16.910156 L 124.832031 20.289062 L 127.625 20.289062 L 127.625 23.863281 L 124.832031 23.863281 L 124.832031 29.019531 C 124.832031 29.566406 124.929688 29.953125 125.148438 30.144531 C 125.371094 30.371094 125.753906 30.46875 126.292969 30.46875 L 127.6875 30.46875 Z M 127.6875 30.5 "/>
<path style=" stroke:none;fill-rule:nonzero;fill:rgb(100%,100%,100%);fill-opacity:1;" d="M 129.683594 16.425781 C 129.683594 15.78125 129.90625 15.265625 130.382812 14.847656 C 130.859375 14.429688 131.460938 14.203125 132.222656 14.203125 C 132.980469 14.203125 133.617188 14.429688 134.0625 14.847656 C 134.535156 15.265625 134.757812 15.78125 134.757812 16.425781 C 134.757812 17.070312 134.535156 17.585938 134.0625 18.003906 C 133.585938 18.421875 132.980469 18.617188 132.222656 18.617188 C 131.460938 18.617188 130.824219 18.421875 130.382812 18.003906 C 129.9375 17.585938 129.683594 17.039062 129.683594 16.425781 Z M 134.378906 20.320312 L 134.378906 34.171875 L 130.097656 34.171875 L 130.097656 20.320312 Z M 134.378906 20.320312 "/>
<path style=" stroke:none;fill-rule:nonzero;fill:rgb(100%,100%,100%);fill-opacity:1;" d="M 143.859375 20.128906 C 145.253906 20.128906 146.492188 20.417969 147.570312 21 C 148.679688 21.546875 149.535156 22.382812 150.136719 23.445312 C 150.769531 24.507812 151.089844 25.765625 151.089844 27.214844 C 151.089844 28.664062 150.769531 29.917969 150.136719 30.984375 C 149.535156 32.046875 148.648438 32.882812 147.570312 33.460938 C 146.492188 34.011719 145.253906 34.300781 143.859375 34.300781 C 142.464844 34.300781 141.226562 34.011719 140.117188 33.460938 C 139.007812 32.882812 138.152344 32.046875 137.515625 30.984375 C 136.914062 29.917969 136.597656 28.664062 136.597656 27.214844 C 136.597656 25.765625 136.914062 24.507812 137.515625 23.445312 C 138.152344 22.382812 139.007812 21.546875 140.117188 21 C 141.226562 20.417969 142.496094 20.128906 143.859375 20.128906 Z M 143.859375 23.800781 C 143.035156 23.800781 142.335938 24.089844 141.765625 24.703125 C 141.226562 25.28125 140.941406 26.121094 140.941406 27.246094 C 140.941406 28.375 141.226562 29.210938 141.765625 29.789062 C 142.335938 30.371094 143.035156 30.660156 143.859375 30.660156 C 144.683594 30.660156 145.347656 30.371094 145.921875 29.789062 C 146.457031 29.210938 146.746094 28.375 146.746094 27.246094 C 146.746094 26.121094 146.457031 25.28125 145.921875 24.703125 C 145.378906 24.121094 144.683594 23.800781 143.859375 23.800781 Z M 143.859375 23.800781 "/>
<path style=" stroke:none;fill-rule:nonzero;fill:rgb(100%,100%,100%);fill-opacity:1;" d="M 162.1875 20.160156 C 163.804688 20.160156 165.074219 20.675781 165.992188 21.738281 C 166.945312 22.800781 167.417969 24.25 167.417969 26.121094 L 167.417969 34.136719 L 163.136719 34.136719 L 163.136719 26.601562 C 163.136719 25.667969 162.882812 24.960938 162.378906 24.445312 C 161.902344 23.929688 161.234375 23.640625 160.410156 23.640625 C 159.554688 23.640625 158.859375 23.898438 158.316406 24.445312 C 157.8125 24.992188 157.558594 25.765625 157.558594 26.761719 L 157.558594 34.105469 L 153.277344 34.105469 L 153.277344 20.257812 L 157.558594 20.257812 L 157.558594 22.800781 C 157.96875 21.964844 158.539062 21.320312 159.332031 20.835938 C 160.1875 20.417969 161.109375 20.160156 162.1875 20.160156 Z M 162.1875 20.160156 "/>
<path style=" stroke:none;fill-rule:nonzero;fill:rgb(100%,100%,100%);fill-opacity:1;" d="M 175.570312 20.128906 C 176.648438 20.128906 177.566406 20.355469 178.328125 20.835938 C 179.089844 21.320312 179.660156 21.964844 180.039062 22.800781 L 180.039062 20.289062 L 184.289062 20.289062 L 184.289062 34.140625 L 180.039062 34.140625 L 180.039062 31.625 C 179.660156 32.464844 179.121094 33.109375 178.328125 33.589844 C 177.566406 34.074219 176.648438 34.300781 175.570312 34.300781 C 174.425781 34.300781 173.378906 34.011719 172.460938 33.460938 C 171.574219 32.882812 170.84375 32.046875 170.304688 30.984375 C 169.796875 29.917969 169.542969 28.664062 169.542969 27.214844 C 169.542969 25.765625 169.796875 24.507812 170.304688 23.445312 C 170.84375 22.382812 171.542969 21.546875 172.460938 21 C 173.378906 20.417969 174.394531 20.128906 175.570312 20.128906 Z M 176.933594 23.863281 C 176.011719 23.863281 175.28125 24.15625 174.710938 24.765625 C 174.171875 25.347656 173.886719 26.183594 173.886719 27.246094 C 173.886719 28.308594 174.171875 29.148438 174.710938 29.726562 C 175.28125 30.304688 176.011719 30.628906 176.933594 30.628906 C 177.820312 30.628906 178.582031 30.339844 179.152344 29.726562 C 179.722656 29.113281 180.039062 28.308594 180.039062 27.277344 C 180.039062 26.25 179.753906 25.410156 179.152344 24.832031 C 178.582031 24.15625 177.820312 23.863281 176.933594 23.863281 Z M 176.933594 23.863281 "/>
<path style=" stroke:none;fill-rule:nonzero;fill:rgb(100%,100%,100%);fill-opacity:1;" d="M 191.488281 15.8125 L 191.488281 34.171875 L 187.207031 34.171875 L 187.207031 15.8125 Z M 191.488281 15.8125 "/>
<path style=" stroke:none;fill-rule:nonzero;fill:rgb(100%,100%,100%);fill-opacity:1;" d="M 90.523438 45.121094 C 92.296875 45.121094 93.789062 45.605469 94.960938 46.539062 C 96.136719 47.472656 96.863281 48.726562 97.148438 50.339844 L 94.105469 50.339844 C 93.949219 49.46875 93.535156 48.824219 92.871094 48.339844 C 92.234375 47.859375 91.441406 47.601562 90.460938 47.601562 C 89.347656 47.601562 88.429688 47.988281 87.699219 48.761719 C 86.972656 49.535156 86.589844 50.660156 86.589844 52.140625 C 86.589844 53.625 86.972656 54.75 87.699219 55.523438 C 88.429688 56.296875 89.347656 56.683594 90.460938 56.683594 C 91.441406 56.683594 92.234375 56.425781 92.871094 55.941406 C 93.535156 55.460938 93.914062 54.78125 94.105469 53.914062 L 97.148438 53.914062 C 96.863281 55.523438 96.136719 56.78125 94.960938 57.746094 C 93.789062 58.679688 92.332031 59.164062 90.523438 59.164062 C 89.191406 59.164062 88.019531 58.871094 86.972656 58.324219 C 85.957031 57.777344 85.164062 56.941406 84.5625 55.910156 C 83.992188 54.847656 83.671875 53.589844 83.671875 52.175781 C 83.671875 50.757812 83.960938 49.5 84.5625 48.46875 C 85.132812 47.40625 85.957031 46.601562 86.972656 46.054688 C 87.984375 45.378906 89.160156 45.121094 90.523438 45.121094 Z M 90.523438 45.121094 "/>
<path style=" stroke:none;fill-rule:nonzero;fill:rgb(100%,100%,100%);fill-opacity:1;" d="M 105.394531 45.121094 C 106.632812 45.121094 107.710938 45.410156 108.597656 46.023438 C 109.484375 46.632812 110.121094 47.441406 110.46875 48.4375 L 110.46875 45.25 L 113.320312 45.25 L 113.320312 58.90625 L 110.46875 58.90625 L 110.46875 55.71875 C 110.085938 56.714844 109.484375 57.519531 108.597656 58.132812 C 107.710938 58.746094 106.632812 59.035156 105.394531 59.035156 C 104.191406 59.035156 103.113281 58.746094 102.160156 58.195312 C 101.242188 57.648438 100.480469 56.8125 99.972656 55.78125 C 99.433594 54.71875 99.179688 53.460938 99.179688 52.046875 C 99.179688 50.628906 99.433594 49.371094 99.972656 48.339844 C 100.511719 47.277344 101.242188 46.472656 102.160156 45.925781 C 103.144531 45.378906 104.222656 45.121094 105.394531 45.121094 Z M 106.28125 47.601562 C 105.015625 47.601562 104 48.019531 103.238281 48.824219 C 102.476562 49.628906 102.097656 50.726562 102.097656 52.109375 C 102.097656 53.496094 102.476562 54.621094 103.238281 55.425781 C 104 56.230469 105.015625 56.617188 106.28125 56.617188 C 107.074219 56.617188 107.804688 56.425781 108.4375 56.070312 C 109.074219 55.683594 109.582031 55.167969 109.929688 54.492188 C 110.308594 53.816406 110.46875 53.011719 110.46875 52.109375 C 110.46875 51.207031 110.277344 50.433594 109.929688 49.757812 C 109.550781 49.050781 109.074219 48.535156 108.4375 48.179688 C 107.804688 47.792969 107.074219 47.601562 106.28125 47.601562 Z M 106.28125 47.601562 "/>
<path style=" stroke:none;fill-rule:nonzero;fill:rgb(100%,100%,100%);fill-opacity:1;" d="M 121.3125 45.121094 C 122.929688 45.121094 124.230469 45.539062 125.179688 46.34375 C 126.164062 47.148438 126.765625 48.246094 126.988281 49.628906 L 124.292969 49.628906 C 124.167969 48.890625 123.851562 48.277344 123.308594 47.859375 C 122.804688 47.40625 122.105469 47.148438 121.21875 47.148438 C 120.488281 47.148438 119.949219 47.3125 119.539062 47.664062 C 119.15625 47.988281 118.964844 48.4375 118.964844 49.019531 C 118.964844 49.4375 119.09375 49.789062 119.378906 50.046875 C 119.664062 50.304688 120.011719 50.53125 120.425781 50.660156 C 120.867188 50.820312 121.472656 50.984375 122.265625 51.144531 C 123.308594 51.367188 124.136719 51.625 124.769531 51.851562 C 125.433594 52.109375 125.972656 52.496094 126.417969 53.042969 C 126.894531 53.558594 127.117188 54.300781 127.117188 55.234375 C 127.117188 56.359375 126.671875 57.292969 125.785156 58.003906 C 124.929688 58.710938 123.753906 59.066406 122.265625 59.066406 C 120.550781 59.066406 119.15625 58.679688 118.078125 57.875 C 117.03125 57.070312 116.398438 55.972656 116.175781 54.558594 L 118.964844 54.558594 C 119.0625 55.296875 119.378906 55.910156 119.980469 56.359375 C 120.550781 56.8125 121.34375 57.070312 122.296875 57.070312 C 122.992188 57.070312 123.5 56.910156 123.914062 56.554688 C 124.324219 56.199219 124.515625 55.75 124.515625 55.203125 C 124.515625 54.71875 124.355469 54.332031 124.070312 54.074219 C 123.785156 53.785156 123.40625 53.589844 122.929688 53.429688 C 122.484375 53.269531 121.851562 53.109375 121.089844 52.945312 C 120.078125 52.722656 119.285156 52.496094 118.648438 52.238281 C 118.046875 52.011719 117.507812 51.625 117.03125 51.109375 C 116.589844 50.597656 116.367188 49.886719 116.367188 48.984375 C 116.367188 47.828125 116.808594 46.890625 117.667969 46.183594 C 118.523438 45.476562 119.757812 45.121094 121.3125 45.121094 Z M 121.3125 45.121094 "/>
<path style=" stroke:none;fill-rule:nonzero;fill:rgb(100%,100%,100%);fill-opacity:1;" d="M 129.589844 41.320312 C 129.589844 40.835938 129.746094 40.449219 130.097656 40.128906 C 130.445312 39.808594 130.859375 39.644531 131.429688 39.644531 C 132 39.644531 132.410156 39.808594 132.761719 40.128906 C 133.109375 40.449219 133.300781 40.835938 133.300781 41.320312 C 133.300781 41.804688 133.109375 42.191406 132.761719 42.480469 C 132.410156 42.769531 132 42.929688 131.429688 42.929688 C 130.859375 42.929688 130.445312 42.769531 130.097656 42.480469 C 129.78125 42.191406 129.589844 41.804688 129.589844 41.320312 Z M 132.855469 45.28125 L 132.855469 58.9375 L 130 58.9375 L 130 45.28125 Z M 132.855469 45.28125 "/>
<path style=" stroke:none;fill-rule:nonzero;fill:rgb(100%,100%,100%);fill-opacity:1;" d="M 144.015625 45.054688 C 145.632812 45.054688 146.902344 45.570312 147.886719 46.601562 C 148.867188 47.632812 149.34375 49.082031 149.34375 50.984375 L 149.34375 58.9375 L 146.492188 58.9375 L 146.492188 51.273438 C 146.492188 50.046875 146.171875 49.113281 145.539062 48.4375 C 144.90625 47.761719 144.050781 47.40625 142.9375 47.40625 C 141.796875 47.40625 140.910156 47.761719 140.210938 48.503906 C 139.515625 49.210938 139.199219 50.273438 139.199219 51.660156 L 139.199219 58.9375 L 136.34375 58.9375 L 136.34375 45.28125 L 139.199219 45.28125 L 139.199219 48.277344 C 139.578125 47.246094 140.179688 46.472656 141.035156 45.894531 C 141.894531 45.347656 142.875 45.054688 144.015625 45.054688 Z M 144.015625 45.054688 "/>
<path style=" stroke:none;fill-rule:nonzero;fill:rgb(100%,100%,100%);fill-opacity:1;" d="M 158.984375 45.121094 C 160.316406 45.121094 161.519531 45.410156 162.597656 45.957031 C 163.675781 46.503906 164.5 47.34375 165.105469 48.375 C 165.707031 49.4375 165.992188 50.660156 165.992188 52.078125 C 165.992188 53.527344 165.707031 54.75 165.105469 55.8125 C 164.5 56.875 163.675781 57.679688 162.597656 58.230469 C 161.519531 58.777344 160.316406 59.066406 158.984375 59.066406 C 157.652344 59.066406 156.449219 58.777344 155.371094 58.230469 C 154.324219 57.679688 153.5 56.84375 152.863281 55.8125 C 152.261719 54.75 151.976562 53.496094 151.976562 52.078125 C 151.976562 50.660156 152.261719 49.40625 152.863281 48.375 C 153.46875 47.3125 154.324219 46.503906 155.371094 45.957031 C 156.449219 45.378906 157.652344 45.121094 158.984375 45.121094 Z M 158.984375 47.570312 C 158.253906 47.570312 157.589844 47.730469 156.953125 48.050781 C 156.351562 48.375 155.84375 48.890625 155.464844 49.597656 C 155.082031 50.273438 154.925781 51.109375 154.925781 52.109375 C 154.925781 53.109375 155.117188 53.945312 155.464844 54.652344 C 155.84375 55.332031 156.351562 55.84375 156.953125 56.167969 C 157.558594 56.488281 158.253906 56.652344 158.984375 56.652344 C 159.714844 56.652344 160.378906 56.488281 161.015625 56.167969 C 161.617188 55.84375 162.125 55.332031 162.503906 54.652344 C 162.882812 53.976562 163.074219 53.140625 163.074219 52.109375 C 163.074219 51.109375 162.882812 50.273438 162.503906 49.597656 C 162.125 48.890625 161.648438 48.40625 161.015625 48.050781 C 160.378906 47.730469 159.714844 47.570312 158.984375 47.570312 Z M 158.984375 47.570312 "/>
</g>
</svg>
